<?xml version="1.0" encoding="UTF-8"?>
<svg xmlns="http://www.w3.org/2000/svg" width="1168" height="962" viewBox="0 0 1168 962"><defs><marker id="arrow" viewBox="0 0 10 10" refX="9" refY="5" markerWidth="7" markerHeight="7" orient="auto"><path d="M 0 0 L 10 5 L 0 10 z" fill="#333" /></marker><marker id="arrow-soft" viewBox="0 0 10 10" refX="9" refY="5" markerWidth="6" markerHeight="6" orient="auto"><path d="M 0 0 L 10 5 L 0 10 z" fill="#888" /></marker></defs><rect x="0" y="0" width="1168" height="962" fill="#ffffff" /><text x="24" y="48" font-family="sans-serif" font-size="20" font-weight="600" fill="#222">Backlog-Karte — aktuelle Lage</text><text x="24" y="66" font-family="sans-serif" font-size="11" fill="#666">Oben: Projektstrang-Cluster · Unten: Cluster-lose Seeds nach geltungsbereich/zugkraft · Tags: A=alle P=plattform Pr=prisment I=intern</text><text x="24" y="90" font-family="sans-serif" font-size="13" font-weight="600" fill="#444" letter-spacing="0.5">Projektstrang-Cluster</text><rect x="24" y="98" width="280" height="188" fill="#9b59b6" fill-opacity="0.05" stroke="#9b59b6" stroke-width="1.2" stroke-dasharray="6 3" rx="4" /><text x="32" y="113" font-family="sans-serif" font-size="11" font-weight="700" fill="#9b59b6" letter-spacing="0.5">▼ Phase-7-Familie (6)</text><rect x="32" y="120" width="264" height="22" fill="#c0392b" fill-opacity="0.18" stroke="#c0392b" stroke-width="1.5" rx="3" /><circle cx="38" cy="131" r="3" fill="#c0392b" /><text x="290" y="135" font-family="sans-serif" font-size="10" font-weight="600" fill="#666" text-anchor="end">P</text><text x="46" y="135" font-family="monospace" font-size="10.5" fill="#222">dependency-monitoring-renovate</text><rect x="32" y="146" width="264" height="22" fill="#c0392b" fill-opacity="0.18" stroke="#c0392b" stroke-width="1.5" rx="3" /><text x="290" y="161" font-family="sans-serif" font-size="10" font-weight="600" fill="#666" text-anchor="end">P</text><text x="40" y="161" font-family="monospace" font-size="10.5" fill="#222">firewall-drop-port22-public</text><rect x="32" y="172" width="264" height="22" fill="#c0392b" fill-opacity="0.18" stroke="#c0392b" stroke-width="1.5" rx="3" /><circle cx="38" cy="183" r="3" fill="#c0392b" /><text x="290" y="187" font-family="sans-serif" font-size="10" font-weight="600" fill="#666" text-anchor="end">P</text><text x="46" y="187" font-family="monospace" font-size="10.5" fill="#222">logging-forensik-grundlage</text><rect x="32" y="198" width="264" height="22" fill="#c0392b" fill-opacity="0.18" stroke="#c0392b" stroke-width="1.5" rx="3" /><text x="290" y="213" font-family="sans-serif" font-size="10" font-weight="600" fill="#666" text-anchor="end">P</text><text x="40" y="213" font-family="monospace" font-size="10.5" fill="#222">test-umgebung-neu-secrets</text><rect x="32" y="224" width="264" height="22" fill="#2980b9" fill-opacity="0.18" stroke="#2980b9" stroke-width="1.5" rx="3" /><text x="290" y="239" font-family="sans-serif" font-size="10" font-weight="600" fill="#666" text-anchor="end">P</text><text x="40" y="239" font-family="monospace" font-size="10.5" fill="#222">dsgvo-dpa-cloudflare</text><rect x="32" y="250" width="264" height="22" fill="#c0392b" fill-opacity="0.18" stroke="#c0392b" stroke-width="1.5" rx="3" /><text x="290" y="265" font-family="sans-serif" font-size="10" font-weight="600" fill="#666" text-anchor="end">Pr</text><text x="40" y="265" font-family="monospace" font-size="10.5" fill="#222">assets-signed-urls</text><rect x="314" y="98" width="280" height="110" fill="#16a085" fill-opacity="0.05" stroke="#16a085" stroke-width="1.2" stroke-dasharray="6 3" rx="4" /><text x="322" y="113" font-family="sans-serif" font-size="11" font-weight="700" fill="#16a085" letter-spacing="0.5">▼ BOOT-001-Familie (3)</text><rect x="322" y="120" width="264" height="22" fill="#c0392b" fill-opacity="0.18" stroke="#c0392b" stroke-width="1.5" rx="3" /><text x="580" y="135" font-family="sans-serif" font-size="10" font-weight="600" fill="#666" text-anchor="end">P</text><text x="330" y="135" font-family="monospace" font-size="10.5" fill="#222">brand-protection-saved-queries</text><rect x="322" y="146" width="264" height="22" fill="#2980b9" fill-opacity="0.18" stroke="#2980b9" stroke-width="1.5" rx="3" /><text x="580" y="161" font-family="sans-serif" font-size="10" font-weight="600" fill="#666" text-anchor="end">A</text><text x="330" y="161" font-family="monospace" font-size="10.5" fill="#222">feature-flag-zustand</text><rect x="322" y="172" width="264" height="22" fill="#7f8c8d" fill-opacity="0.18" stroke="#7f8c8d" stroke-width="1.5" rx="3" /><text x="580" y="187" font-family="sans-serif" font-size="10" font-weight="600" fill="#666" text-anchor="end">P</text><text x="330" y="187" font-family="monospace" font-size="10.5" fill="#222">diun-rueckbau</text><rect x="604" y="98" width="280" height="396" fill="#3498db" fill-opacity="0.05" stroke="#3498db" stroke-width="1.2" stroke-dasharray="6 3" rx="4" /><text x="612" y="113" font-family="sans-serif" font-size="11" font-weight="700" fill="#3498db" letter-spacing="0.5">▼ SMA-Familie (14)</text><rect x="612" y="120" width="264" height="22" fill="#c0392b" fill-opacity="0.18" stroke="#c0392b" stroke-width="1.5" rx="3" /><circle cx="618" cy="131" r="3" fill="#c0392b" /><text x="870" y="135" font-family="sans-serif" font-size="10" font-weight="600" fill="#666" text-anchor="end">Pr</text><text x="626" y="135" font-family="monospace" font-size="10.5" fill="#222">sma-dsgvo-sammel</text><rect x="612" y="146" width="264" height="22" fill="#d35400" fill-opacity="0.18" stroke="#d35400" stroke-width="1.5" rx="3" /><text x="870" y="161" font-family="sans-serif" font-size="10" font-weight="600" fill="#666" text-anchor="end">A</text><text x="620" y="161" font-family="monospace" font-size="10.5" fill="#222">error-sammler-security-checks</text><rect x="612" y="172" width="264" height="22" fill="#d35400" fill-opacity="0.18" stroke="#d35400" stroke-width="1.5" rx="3" /><text x="870" y="187" font-family="sans-serif" font-size="10" font-weight="600" fill="#666" text-anchor="end">Pr</text><text x="620" y="187" font-family="monospace" font-size="10.5" fill="#222">sma-llm-kosten-pii</text><rect x="612" y="198" width="264" height="22" fill="#d35400" fill-opacity="0.18" stroke="#d35400" stroke-width="1.5" rx="3" /><text x="870" y="213" font-family="sans-serif" font-size="10" font-weight="600" fill="#666" text-anchor="end">Pr</text><text x="620" y="213" font-family="monospace" font-size="10.5" fill="#222">sma-push-subscription-hardening</text><rect x="612" y="224" width="264" height="22" fill="#d35400" fill-opacity="0.18" stroke="#d35400" stroke-width="1.5" rx="3" /><text x="870" y="239" font-family="sans-serif" font-size="10" font-weight="600" fill="#666" text-anchor="end">Pr</text><text x="620" y="239" font-family="monospace" font-size="10.5" fill="#222">sma-voice-check-audit</text><rect x="612" y="250" width="264" height="22" fill="#27ae60" fill-opacity="0.18" stroke="#27ae60" stroke-width="1.5" rx="3" /><text x="870" y="265" font-family="sans-serif" font-size="10" font-weight="600" fill="#666" text-anchor="end">Pr</text><text x="620" y="265" font-family="monospace" font-size="10.5" fill="#222">sma-admin-configs-editor</text><rect x="612" y="276" width="264" height="22" fill="#27ae60" fill-opacity="0.18" stroke="#27ae60" stroke-width="1.5" rx="3" /><text x="870" y="291" font-family="sans-serif" font-size="10" font-weight="600" fill="#666" text-anchor="end">Pr</text><text x="620" y="291" font-family="monospace" font-size="10.5" fill="#222">sma-geposted-section</text><rect x="612" y="302" width="264" height="22" fill="#27ae60" fill-opacity="0.18" stroke="#27ae60" stroke-width="1.5" rx="3" /><text x="870" y="317" font-family="sans-serif" font-size="10" font-weight="600" fill="#666" text-anchor="end">Pr</text><text x="620" y="317" font-family="monospace" font-size="10.5" fill="#222">sma-meta-api-integration</text><rect x="612" y="328" width="264" height="22" fill="#27ae60" fill-opacity="0.18" stroke="#27ae60" stroke-width="1.5" rx="3" /><text x="870" y="343" font-family="sans-serif" font-size="10" font-weight="600" fill="#666" text-anchor="end">Pr</text><text x="620" y="343" font-family="monospace" font-size="10.5" fill="#222">sma-multi-persona-onboarding</text><rect x="612" y="354" width="264" height="22" fill="#27ae60" fill-opacity="0.18" stroke="#27ae60" stroke-width="1.5" rx="3" /><text x="870" y="369" font-family="sans-serif" font-size="10" font-weight="600" fill="#666" text-anchor="end">Pr</text><text x="620" y="369" font-family="monospace" font-size="10.5" fill="#222">sma-multi-tenant-ux</text><rect x="612" y="380" width="264" height="22" fill="#d35400" fill-opacity="0.18" stroke="#d35400" stroke-width="1.5" rx="3" /><text x="870" y="395" font-family="sans-serif" font-size="10" font-weight="600" fill="#666" text-anchor="end">Pr</text><text x="620" y="395" font-family="monospace" font-size="10.5" fill="#222">sma-rag-pgvector-hybrid</text><rect x="612" y="406" width="264" height="22" fill="#2980b9" fill-opacity="0.18" stroke="#2980b9" stroke-width="1.5" rx="3" /><text x="870" y="421" font-family="sans-serif" font-size="10" font-weight="600" fill="#666" text-anchor="end">P</text><text x="620" y="421" font-family="monospace" font-size="10.5" fill="#222">foundation-repo</text><rect x="612" y="432" width="264" height="22" fill="#27ae60" fill-opacity="0.18" stroke="#27ae60" stroke-width="1.5" rx="3" /><circle cx="618" cy="443" r="3" fill="#c0392b" /><text x="870" y="447" font-family="sans-serif" font-size="10" font-weight="600" fill="#666" text-anchor="end">Pr</text><text x="626" y="447" font-family="monospace" font-size="10.5" fill="#222">sma-prestashop-meta-audiences</text><rect x="612" y="458" width="264" height="22" fill="#27ae60" fill-opacity="0.18" stroke="#27ae60" stroke-width="1.5" rx="3" /><text x="870" y="473" font-family="sans-serif" font-size="10" font-weight="600" fill="#666" text-anchor="end">Pr</text><text x="620" y="473" font-family="monospace" font-size="10.5" fill="#222">sma-webauthn-passkeys</text><rect x="894" y="98" width="280" height="110" fill="#7f8c8d" fill-opacity="0.05" stroke="#7f8c8d" stroke-width="1.2" stroke-dasharray="6 3" rx="4" /><text x="902" y="113" font-family="sans-serif" font-size="11" font-weight="700" fill="#7f8c8d" letter-spacing="0.5">▼ n8n-Familie (3)</text><rect x="902" y="120" width="264" height="22" fill="#c0392b" fill-opacity="0.18" stroke="#c0392b" stroke-width="1.5" rx="3" /><circle cx="908" cy="131" r="3" fill="#c0392b" /><text x="1160" y="135" font-family="sans-serif" font-size="10" font-weight="600" fill="#666" text-anchor="end">P</text><text x="916" y="135" font-family="monospace" font-size="10.5" fill="#222">n8n-migration-2-21</text><rect x="902" y="146" width="264" height="22" fill="#7f8c8d" fill-opacity="0.18" stroke="#7f8c8d" stroke-width="1.5" rx="3" /><text x="1160" y="161" font-family="sans-serif" font-size="10" font-weight="600" fill="#666" text-anchor="end">I</text><text x="910" y="161" font-family="monospace" font-size="10.5" fill="#222">n8n-archived-workflow-cleanup</text><rect x="902" y="172" width="264" height="22" fill="#7f8c8d" fill-opacity="0.18" stroke="#7f8c8d" stroke-width="1.5" rx="3" /><text x="1160" y="187" font-family="sans-serif" font-size="10" font-weight="600" fill="#666" text-anchor="end">P</text><text x="910" y="187" font-family="monospace" font-size="10.5" fill="#222">n8n-execution-data-pruning</text><text x="24" y="530" font-family="sans-serif" font-size="13" font-weight="600" fill="#444" letter-spacing="0.5">Cluster-lose Seeds</text><rect x="24" y="538" width="280" height="32" fill="#f7f7f7" stroke="#ddd" /><text x="164" y="559" font-family="sans-serif" font-size="13" font-weight="600" fill="#333" text-anchor="middle">alle</text><rect x="304" y="538" width="280" height="32" fill="#f7f7f7" stroke="#ddd" /><text x="444" y="559" font-family="sans-serif" font-size="13" font-weight="600" fill="#333" text-anchor="middle">plattform</text><rect x="584" y="538" width="280" height="32" fill="#f7f7f7" stroke="#ddd" /><text x="724" y="559" font-family="sans-serif" font-size="13" font-weight="600" fill="#333" text-anchor="middle">prisment</text><rect x="864" y="538" width="280" height="32" fill="#f7f7f7" stroke="#ddd" /><text x="1004" y="559" font-family="sans-serif" font-size="13" font-weight="600" fill="#333" text-anchor="middle">intern</text><rect x="24" y="570" width="1120" height="58" fill="#fafafa" stroke="#eee" /><text x="32" y="586" font-family="sans-serif" font-size="11" font-weight="600" fill="#999" letter-spacing="1">JETZT</text><rect x="24" y="628" width="1120" height="110" fill="#f3f3f3" stroke="#eee" /><text x="32" y="644" font-family="sans-serif" font-size="11" font-weight="600" fill="#999" letter-spacing="1">BALD</text><rect x="32" y="650" width="264" height="22" fill="#2980b9" fill-opacity="0.18" stroke="#2980b9" stroke-width="1.5" rx="3" /><text x="290" y="665" font-family="sans-serif" font-size="10" font-weight="600" fill="#666" text-anchor="end">A</text><text x="40" y="665" font-family="monospace" font-size="10.5" fill="#222">machbarkeit-anti-stop-pflicht</text><rect x="312" y="650" width="264" height="22" fill="#c0392b" fill-opacity="0.18" stroke="#c0392b" stroke-width="1.5" rx="3" /><circle cx="318" cy="661" r="3" fill="#c0392b" /><text x="570" y="665" font-family="sans-serif" font-size="10" font-weight="600" fill="#666" text-anchor="end">P</text><text x="326" y="665" font-family="monospace" font-size="10.5" fill="#222">pg-hba-local-haerten</text><rect x="312" y="676" width="264" height="22" fill="#d35400" fill-opacity="0.18" stroke="#d35400" stroke-width="1.5" rx="3" /><circle cx="318" cy="687" r="3" fill="#c0392b" /><text x="570" y="691" font-family="sans-serif" font-size="10" font-weight="600" fill="#666" text-anchor="end">P</text><text x="326" y="691" font-family="monospace" font-size="10.5" fill="#222">pwa-user-superuser-entzug</text><rect x="312" y="702" width="264" height="22" fill="#2980b9" fill-opacity="0.18" stroke="#2980b9" stroke-width="1.5" rx="3" /><circle cx="318" cy="713" r="3" fill="#c0392b" /><text x="570" y="717" font-family="sans-serif" font-size="10" font-weight="600" fill="#666" text-anchor="end">P</text><text x="326" y="717" font-family="monospace" font-size="10.5" fill="#222">apply-autonomie-pipeline</text><rect x="24" y="738" width="1120" height="84" fill="#fafafa" stroke="#eee" /><text x="32" y="754" font-family="sans-serif" font-size="11" font-weight="600" fill="#999" letter-spacing="1">IRGENDWANN</text><rect x="312" y="760" width="264" height="22" fill="#7f8c8d" fill-opacity="0.18" stroke="#7f8c8d" stroke-width="1.5" rx="3" /><text x="570" y="775" font-family="sans-serif" font-size="10" font-weight="600" fill="#666" text-anchor="end">P</text><text x="320" y="775" font-family="monospace" font-size="10.5" fill="#222">base-image-majors</text><rect x="312" y="786" width="264" height="22" fill="#7f8c8d" fill-opacity="0.18" stroke="#7f8c8d" stroke-width="1.5" rx="3" /><text x="570" y="801" font-family="sans-serif" font-size="10" font-weight="600" fill="#666" text-anchor="end">P</text><text x="320" y="801" font-family="monospace" font-size="10.5" fill="#222">pending-kernel-debconf-noise</text><rect x="592" y="760" width="264" height="22" fill="#2980b9" fill-opacity="0.18" stroke="#2980b9" stroke-width="1.5" rx="3" /><circle cx="598" cy="771" r="3" fill="#c0392b" /><text x="850" y="775" font-family="sans-serif" font-size="10" font-weight="600" fill="#666" text-anchor="end">Pr</text><text x="606" y="775" font-family="monospace" font-size="10.5" fill="#222">zero-downtime-pwa-agents</text><rect x="592" y="786" width="264" height="22" fill="#7f8c8d" fill-opacity="0.18" stroke="#7f8c8d" stroke-width="1.5" rx="3" /><text x="850" y="801" font-family="sans-serif" font-size="10" font-weight="600" fill="#666" text-anchor="end">Pr</text><text x="600" y="801" font-family="monospace" font-size="10.5" fill="#222">pwa-api-db-pfad-konsolidierung</text><rect x="872" y="760" width="264" height="22" fill="#27ae60" fill-opacity="0.18" stroke="#27ae60" stroke-width="1.5" rx="3" /><circle cx="878" cy="771" r="3" fill="#c0392b" /><text x="1130" y="775" font-family="sans-serif" font-size="10" font-weight="600" fill="#666" text-anchor="end">I</text><text x="886" y="775" font-family="monospace" font-size="10.5" fill="#222">assistant-agent</text><path d="M 876 313 Q 896 300 876 287" fill="none" stroke="#333" stroke-width="1.5" marker-end="url(#arrow)" opacity="0.85" /><path d="M 876 313 Q 896 378 876 443" fill="none" stroke="#333" stroke-width="1.5" marker-end="url(#arrow)" opacity="0.85" /><text x="24" y="838" font-family="sans-serif" font-size="11" font-weight="600" fill="#444">Klassen:</text><rect x="94" y="828" width="14" height="14" fill="#c0392b" fill-opacity="0.18" stroke="#c0392b" stroke-width="1.5" /><text x="114" y="839" font-family="sans-serif" font-size="11" fill="#333">security</text><rect x="224" y="828" width="14" height="14" fill="#d35400" fill-opacity="0.18" stroke="#d35400" stroke-width="1.5" /><text x="244" y="839" font-family="sans-serif" font-size="11" fill="#333">qualitaet</text><rect x="354" y="828" width="14" height="14" fill="#2980b9" fill-opacity="0.18" stroke="#2980b9" stroke-width="1.5" /><text x="374" y="839" font-family="sans-serif" font-size="11" fill="#333">prozess</text><rect x="484" y="828" width="14" height="14" fill="#27ae60" fill-opacity="0.18" stroke="#27ae60" stroke-width="1.5" /><text x="504" y="839" font-family="sans-serif" font-size="11" fill="#333">feature</text><rect x="614" y="828" width="14" height="14" fill="#7f8c8d" fill-opacity="0.18" stroke="#7f8c8d" stroke-width="1.5" /><text x="634" y="839" font-family="sans-serif" font-size="11" fill="#333">wartung</text><circle cx="31" cy="856" r="3" fill="#c0392b" /><text x="42" y="860" font-family="sans-serif" font-size="11" fill="#333">risikoklasse kritisch / sicherheitskritisch-akut</text><text x="304" y="860" font-family="sans-serif" font-size="11" fill="#333">→  hart abhaengig_von</text><circle cx="454" cy="856" r="3" fill="#27ae60" /><text x="465" y="860" font-family="sans-serif" font-size="11" fill="#333">Spec freigegeben (autonom_ziehbar)</text><text x="24" y="880" font-family="sans-serif" font-size="11" fill="#666">⇢  weich (verbundene_seeds / basiert_auf_spec / voraussetzt)</text><rect x="304" y="869" width="14" height="14" fill="#3498db" fill-opacity="0.05" stroke="#3498db" stroke-width="1.2" stroke-dasharray="4 2" rx="2" /><text x="324" y="880" font-family="sans-serif" font-size="11" fill="#333">Cluster-Box (Provenienz: SMA / Phase-7 / BOOT-001 / Filename-Präfix ab 3)</text><text x="24" y="900" font-family="sans-serif" font-size="11" fill="#666">Geltungsbereich-Tags in Cluster-Boxen: A=alle  P=plattform  Pr=prisment  I=intern</text></svg>
