<?xml version="1.0" encoding="UTF-8"?>
<svg xmlns="http://www.w3.org/2000/svg" width="1168" height="904" viewBox="0 0 1168 904"><defs><marker id="arrow" viewBox="0 0 10 10" refX="9" refY="5" markerWidth="7" markerHeight="7" orient="auto"><path d="M 0 0 L 10 5 L 0 10 z" fill="#333" /></marker></defs><rect x="0" y="0" width="1168" height="904" fill="#ffffff" /><text x="24" y="48" font-family="sans-serif" font-size="20" font-weight="600" fill="#222">Backlog-Karte — aktuelle Lage</text><text x="24" y="66" font-family="sans-serif" font-size="11" fill="#666">Spalten: geltungsbereich · Zeilen: zugkraft · Farbe: klasse · Roadmaps: gestrichelter Rand · Pfeile: abhaengig_von</text><rect x="24" y="74" width="280" height="32" fill="#f7f7f7" stroke="#ddd" /><text x="164" y="95" font-family="sans-serif" font-size="13" font-weight="600" fill="#333" text-anchor="middle">alle</text><rect x="304" y="74" width="280" height="32" fill="#f7f7f7" stroke="#ddd" /><text x="444" y="95" font-family="sans-serif" font-size="13" font-weight="600" fill="#333" text-anchor="middle">plattform</text><rect x="584" y="74" width="280" height="32" fill="#f7f7f7" stroke="#ddd" /><text x="724" y="95" font-family="sans-serif" font-size="13" font-weight="600" fill="#333" text-anchor="middle">prisment</text><rect x="864" y="74" width="280" height="32" fill="#f7f7f7" stroke="#ddd" /><text x="1004" y="95" font-family="sans-serif" font-size="13" font-weight="600" fill="#333" text-anchor="middle">intern</text><rect x="24" y="106" width="1120" height="110" fill="#fafafa" stroke="#eee" /><text x="32" y="122" font-family="sans-serif" font-size="11" font-weight="600" fill="#999" letter-spacing="1">JETZT</text><rect x="312" y="128" width="264" height="22" fill="#c0392b" fill-opacity="0.18" stroke="#c0392b" stroke-width="1.5" rx="3" /><circle cx="318" cy="139" r="3" fill="#c0392b" /><text x="326" y="143" font-family="monospace" font-size="10.5" fill="#222">code-security-checks</text><rect x="312" y="154" width="264" height="22" fill="#c0392b" fill-opacity="0.18" stroke="#c0392b" stroke-width="1.5" rx="3" /><circle cx="318" cy="165" r="3" fill="#c0392b" /><text x="326" y="169" font-family="monospace" font-size="10.5" fill="#222">pg-hba-haerten</text><rect x="592" y="128" width="264" height="22" fill="#c0392b" fill-opacity="0.18" stroke="#c0392b" stroke-width="1.5" rx="3" /><circle cx="598" cy="139" r="3" fill="#c0392b" /><text x="606" y="143" font-family="monospace" font-size="10.5" fill="#222">sma-dsgvo-sammel</text><rect x="592" y="154" width="264" height="22" fill="#d35400" fill-opacity="0.18" stroke="#d35400" stroke-width="1.5" rx="3" /><text x="600" y="169" font-family="monospace" font-size="10.5" fill="#222">data-integrity-agents</text><rect x="592" y="180" width="264" height="22" fill="#d35400" fill-opacity="0.18" stroke="#d35400" stroke-width="1.5" rx="3" /><circle cx="598" cy="191" r="3" fill="#c0392b" /><text x="606" y="195" font-family="monospace" font-size="10.5" fill="#222">sma-skalierungs-haertung-mandant-2</text><rect x="24" y="216" width="1120" height="370" fill="#f3f3f3" stroke="#eee" /><text x="32" y="232" font-family="sans-serif" font-size="11" font-weight="600" fill="#999" letter-spacing="1">BALD</text><rect x="32" y="238" width="264" height="22" fill="#d35400" fill-opacity="0.18" stroke="#d35400" stroke-width="1.5" rx="3" /><text x="40" y="253" font-family="monospace" font-size="10.5" fill="#222">error-sammler-security-checks</text><rect x="32" y="264" width="264" height="22" fill="#2980b9" fill-opacity="0.18" stroke="#2980b9" stroke-width="1.5" rx="3" /><text x="40" y="279" font-family="monospace" font-size="10.5" fill="#222">bereichs-uebersichten</text><rect x="32" y="290" width="264" height="22" fill="#2980b9" fill-opacity="0.18" stroke="#2980b9" stroke-width="1.5" rx="3" /><text x="40" y="305" font-family="monospace" font-size="10.5" fill="#222">korridor-beobachtung</text><rect x="312" y="238" width="264" height="22" fill="#c0392b" fill-opacity="0.18" stroke="#c0392b" stroke-width="1.5" rx="3" /><text x="320" y="253" font-family="monospace" font-size="10.5" fill="#222">brand-protection-saved-queries</text><rect x="312" y="264" width="264" height="22" fill="#c0392b" fill-opacity="0.18" stroke="#c0392b" stroke-width="1.5" rx="3" /><circle cx="318" cy="275" r="3" fill="#c0392b" /><text x="326" y="279" font-family="monospace" font-size="10.5" fill="#222">dependency-monitoring-renovate</text><rect x="312" y="290" width="264" height="22" fill="#c0392b" fill-opacity="0.18" stroke="#c0392b" stroke-width="1.5" rx="3" /><text x="320" y="305" font-family="monospace" font-size="10.5" fill="#222">firewall-drop-port22-public</text><rect x="312" y="316" width="264" height="22" fill="#c0392b" fill-opacity="0.18" stroke="#c0392b" stroke-width="1.5" rx="3" /><text x="320" y="331" font-family="monospace" font-size="10.5" fill="#222">image-pinning-latest-services</text><rect x="312" y="342" width="264" height="22" fill="#c0392b" fill-opacity="0.18" stroke="#c0392b" stroke-width="1.5" rx="3" /><circle cx="318" cy="353" r="3" fill="#c0392b" /><text x="326" y="357" font-family="monospace" font-size="10.5" fill="#222">logging-forensik-grundlage</text><rect x="312" y="368" width="264" height="22" fill="#c0392b" fill-opacity="0.18" stroke="#c0392b" stroke-width="1.5" rx="3" /><circle cx="318" cy="379" r="3" fill="#c0392b" /><text x="326" y="383" font-family="monospace" font-size="10.5" fill="#222">pretooluse-hook-allowlist</text><rect x="312" y="394" width="264" height="22" fill="#c0392b" fill-opacity="0.18" stroke="#c0392b" stroke-width="1.5" rx="3" /><text x="320" y="409" font-family="monospace" font-size="10.5" fill="#222">test-umgebung-neu-secrets</text><rect x="312" y="420" width="264" height="22" fill="#2980b9" fill-opacity="0.18" stroke="#2980b9" stroke-width="1.5" rx="3" /><text x="320" y="435" font-family="monospace" font-size="10.5" fill="#222">architekt-lesezugriff-worktree</text><rect x="312" y="446" width="264" height="22" fill="#2980b9" fill-opacity="0.18" stroke="#2980b9" stroke-width="1.5" rx="3" /><text x="320" y="461" font-family="monospace" font-size="10.5" fill="#222">dsgvo-dpa-cloudflare</text><rect x="312" y="472" width="264" height="22" fill="#2980b9" fill-opacity="0.18" stroke="#2980b9" stroke-width="1.5" rx="3" /><text x="320" y="487" font-family="monospace" font-size="10.5" fill="#222">notausgang-doku</text><rect x="312" y="498" width="264" height="22" fill="#2980b9" fill-opacity="0.18" stroke="#2980b9" stroke-width="1.5" rx="3" /><text x="320" y="513" font-family="monospace" font-size="10.5" fill="#222">secret-inventar-pg-rollen</text><rect x="312" y="524" width="264" height="22" fill="#2980b9" fill-opacity="0.18" stroke="#2980b9" stroke-width="1.5" rx="3" /><text x="320" y="539" font-family="monospace" font-size="10.5" fill="#222">spec-id-vergabe-kollisionsfrei</text><rect x="312" y="550" width="264" height="22" fill="#7f8c8d" fill-opacity="0.18" stroke="#7f8c8d" stroke-width="1.5" rx="3" /><text x="320" y="565" font-family="monospace" font-size="10.5" fill="#222">compose-recreate-after-edit</text><rect x="592" y="238" width="264" height="22" fill="#d35400" fill-opacity="0.18" stroke="#d35400" stroke-width="1.5" rx="3" /><text x="600" y="253" font-family="monospace" font-size="10.5" fill="#222">sma-llm-kosten-pii</text><rect x="592" y="264" width="264" height="22" fill="#d35400" fill-opacity="0.18" stroke="#d35400" stroke-width="1.5" rx="3" /><text x="600" y="279" font-family="monospace" font-size="10.5" fill="#222">sma-push-subscription-hardening</text><rect x="592" y="290" width="264" height="22" fill="#d35400" fill-opacity="0.18" stroke="#d35400" stroke-width="1.5" rx="3" /><text x="600" y="305" font-family="monospace" font-size="10.5" fill="#222">sma-voice-check-audit</text><rect x="592" y="316" width="264" height="22" fill="#27ae60" fill-opacity="0.18" stroke="#27ae60" stroke-width="1.5" rx="3" /><text x="600" y="331" font-family="monospace" font-size="10.5" fill="#222">sma-admin-configs-editor</text><rect x="592" y="342" width="264" height="22" fill="#27ae60" fill-opacity="0.18" stroke="#27ae60" stroke-width="1.5" rx="3" /><text x="600" y="357" font-family="monospace" font-size="10.5" fill="#222">sma-geposted-section</text><rect x="592" y="368" width="264" height="22" fill="#27ae60" fill-opacity="0.18" stroke="#27ae60" stroke-width="1.5" rx="3" /><text x="600" y="383" font-family="monospace" font-size="10.5" fill="#222">sma-meta-api-integration</text><rect x="592" y="394" width="264" height="22" fill="#27ae60" fill-opacity="0.18" stroke="#27ae60" stroke-width="1.5" rx="3" /><text x="600" y="409" font-family="monospace" font-size="10.5" fill="#222">sma-multi-persona-onboarding</text><rect x="592" y="420" width="264" height="22" fill="#27ae60" fill-opacity="0.18" stroke="#27ae60" stroke-width="1.5" rx="3" /><text x="600" y="435" font-family="monospace" font-size="10.5" fill="#222">sma-multi-tenant-ux</text><rect x="24" y="586" width="1120" height="214" fill="#fafafa" stroke="#eee" /><text x="32" y="602" font-family="sans-serif" font-size="11" font-weight="600" fill="#999" letter-spacing="1">IRGENDWANN</text><rect x="32" y="608" width="264" height="22" fill="#2980b9" fill-opacity="0.18" stroke="#2980b9" stroke-width="1.5" rx="3" /><text x="40" y="623" font-family="monospace" font-size="10.5" fill="#222">feature-flag-zustand</text><rect x="32" y="634" width="264" height="22" fill="#2980b9" fill-opacity="0.18" stroke="#2980b9" stroke-width="1.5" rx="3" /><text x="40" y="649" font-family="monospace" font-size="10.5" fill="#222">skills-evaluieren</text><rect x="312" y="608" width="264" height="22" fill="#c0392b" fill-opacity="0.18" stroke="#c0392b" stroke-width="1.5" rx="3" /><text x="320" y="623" font-family="monospace" font-size="10.5" fill="#222">cve-watchdog-regel-b</text><rect x="312" y="634" width="264" height="22" fill="#c0392b" fill-opacity="0.18" stroke="#c0392b" stroke-width="1.5" rx="3" /><text x="320" y="649" font-family="monospace" font-size="10.5" fill="#222">waf-owasp-block-modus</text><rect x="312" y="660" width="264" height="22" fill="#2980b9" fill-opacity="0.18" stroke="#2980b9" stroke-width="1.5" rx="3" /><text x="320" y="675" font-family="monospace" font-size="10.5" fill="#222">foundation-repo</text><rect x="312" y="686" width="264" height="22" fill="#7f8c8d" fill-opacity="0.18" stroke="#7f8c8d" stroke-width="1.5" rx="3" /><text x="320" y="701" font-family="monospace" font-size="10.5" fill="#222">base-image-versionen</text><rect x="312" y="712" width="264" height="22" fill="#7f8c8d" fill-opacity="0.18" stroke="#7f8c8d" stroke-width="1.5" rx="3" /><text x="320" y="727" font-family="monospace" font-size="10.5" fill="#222">diun-rueckbau</text><rect x="312" y="738" width="264" height="22" fill="#7f8c8d" fill-opacity="0.18" stroke="#7f8c8d" stroke-width="1.5" rx="3" /><text x="320" y="753" font-family="monospace" font-size="10.5" fill="#222">dns-cache-resolved-hairpin</text><rect x="312" y="764" width="264" height="22" fill="#7f8c8d" fill-opacity="0.18" stroke="#7f8c8d" stroke-width="1.5" rx="3" /><text x="320" y="779" font-family="monospace" font-size="10.5" fill="#222">pending-kernel-debconf-noise</text><rect x="592" y="608" width="264" height="22" fill="#c0392b" fill-opacity="0.18" stroke="#c0392b" stroke-width="1.5" rx="3" /><text x="600" y="623" font-family="monospace" font-size="10.5" fill="#222">assets-signed-urls</text><rect x="592" y="634" width="264" height="22" fill="#d35400" fill-opacity="0.18" stroke="#d35400" stroke-width="1.5" rx="3" /><text x="600" y="649" font-family="monospace" font-size="10.5" fill="#222">sma-rag-pgvector-hybrid</text><rect x="592" y="660" width="264" height="22" fill="#27ae60" fill-opacity="0.18" stroke="#27ae60" stroke-width="1.5" rx="3" /><circle cx="598" cy="671" r="3" fill="#c0392b" /><text x="606" y="675" font-family="monospace" font-size="10.5" fill="#222">sma-prestashop-meta-audiences</text><rect x="592" y="686" width="264" height="22" fill="#27ae60" fill-opacity="0.18" stroke="#27ae60" stroke-width="1.5" rx="3" /><text x="600" y="701" font-family="monospace" font-size="10.5" fill="#222">sma-webauthn-passkeys</text><rect x="872" y="608" width="264" height="22" fill="#27ae60" fill-opacity="0.18" stroke="#27ae60" stroke-width="1.5" rx="3" /><circle cx="878" cy="619" r="3" fill="#c0392b" /><text x="886" y="623" font-family="monospace" font-size="10.5" fill="#222">assistant-agent</text><path d="M 856 379 Q 876 366 856 353" fill="none" stroke="#333" stroke-width="1.4" marker-end="url(#arrow)" opacity="0.8" /><path d="M 856 379 Q 876 525 856 671" fill="none" stroke="#333" stroke-width="1.4" marker-end="url(#arrow)" opacity="0.8" /><text x="24" y="816" font-family="sans-serif" font-size="11" font-weight="600" fill="#444">Klassen:</text><rect x="94" y="806" width="14" height="14" fill="#c0392b" fill-opacity="0.18" stroke="#c0392b" stroke-width="1.5" /><text x="114" y="817" font-family="sans-serif" font-size="11" fill="#333">security</text><rect x="224" y="806" width="14" height="14" fill="#d35400" fill-opacity="0.18" stroke="#d35400" stroke-width="1.5" /><text x="244" y="817" font-family="sans-serif" font-size="11" fill="#333">qualitaet</text><rect x="354" y="806" width="14" height="14" fill="#2980b9" fill-opacity="0.18" stroke="#2980b9" stroke-width="1.5" /><text x="374" y="817" font-family="sans-serif" font-size="11" fill="#333">prozess</text><rect x="484" y="806" width="14" height="14" fill="#27ae60" fill-opacity="0.18" stroke="#27ae60" stroke-width="1.5" /><text x="504" y="817" font-family="sans-serif" font-size="11" fill="#333">feature</text><rect x="614" y="806" width="14" height="14" fill="#7f8c8d" fill-opacity="0.18" stroke="#7f8c8d" stroke-width="1.5" /><text x="634" y="817" font-family="sans-serif" font-size="11" fill="#333">wartung</text><circle cx="31" cy="834" r="3" fill="#c0392b" /><text x="42" y="838" font-family="sans-serif" font-size="11" fill="#333">risikoklasse kritisch / sicherheitskritisch-akut</text><rect x="314" y="827" width="14" height="14" fill="#fff" stroke="#666" stroke-width="1.5" stroke-dasharray="4 2" /><text x="334" y="838" font-family="sans-serif" font-size="11" fill="#333">Roadmap (gestrichelt)</text><text x="494" y="838" font-family="sans-serif" font-size="11" fill="#333">→  abhaengig_von (Pfeil zeigt auf abhängigen Seed)</text></svg>
